# xmcd CD database file
#
# Track frame offsets:
#	150
#	4140
#	23817
#	53353
#	76739
#	103604
#	123636
#	128709
#	156479
#	178962
#	205332
#	231453
#	261010
#	289907
#	299510
#
# Disc length: 4465 seconds
#
# Revision: 4
# Processed by: cddbd v1.5.1PL2 Copyright (c) Steve Scherf et al.
# Submitted via: CDex 1.51
#
DISCID=d9116f0f
DTITLE=ケツメイシ - ケツノポリス3
DYEAR=2003
DGENRE=JPop
TTITLE0=(バテバテ)
TTITLE1=はじまりの合図
TTITLE2=夏の思い出
TTITLE3=1日
TTITLE4=家に帰ろう
TTITLE5=明日の少年
TTITLE6=(マブーハイ)
TTITLE7=夜の天使
TTITLE8=失恋
TTITLE9=門限やぶり
TTITLE10=痔持ち一代
TTITLE11=幸せをありがとう
TTITLE12=太陽
TTITLE13=(カントゥータンタンヨー)
TTITLE14=花鳥風月(Album Mix)
EXTD=YEAR: 2003
EXTT0=
EXTT1=
EXTT2=
EXTT3=
EXTT4=
EXTT5=
EXTT6=
EXTT7=
EXTT8=
EXTT9=
EXTT10=
EXTT11=
EXTT12=
EXTT13=
EXTT14=
PLAYORDER=
